<svg width="24" height="70" viewBox="0 0 24 70" fill="none" xmlns="http://www.w3.org/2000/svg">
<path d="M13.5 2C13.5 1.17157 12.8284 0.5 12 0.5C11.1716 0.5 10.5 1.17157 10.5 2L13.5 2ZM10.9393 69.0607C11.5251 69.6464 12.4749 69.6464 13.0607 69.0607L22.6066 59.5147C23.1924 58.9289 23.1924 57.9792 22.6066 57.3934C22.0208 56.8076 21.0711 56.8076 20.4853 57.3934L12 65.8787L3.51472 57.3934C2.92893 56.8076 1.97918 56.8076 1.3934 57.3934C0.807612 57.9792 0.807612 58.9289 1.3934 59.5147L10.9393 69.0607ZM10.5 2L10.5 68L13.5 68L13.5 2L10.5 2Z" fill="black"/>
</svg>
