<svg width="23" height="71" viewBox="0 0 23 71" fill="none" xmlns="http://www.w3.org/2000/svg">
<path d="M13.9996 2.03357C14.0182 1.20535 13.3618 0.518918 12.5336 0.500376C11.7054 0.481834 11.0189 1.13821 11.0004 1.96643L13.9996 2.03357ZM9.91587 70.0367C10.4884 70.6354 11.4379 70.6567 12.0367 70.0841L21.7939 60.7542C22.3926 60.1817 22.4139 59.2322 21.8413 58.6335C21.2688 58.0347 20.3193 58.0135 19.7206 58.586L11.0475 66.8792L2.75425 58.2061C2.18172 57.6074 1.23221 57.5861 0.633457 58.1587C0.0347061 58.7312 0.0134484 59.6807 0.585977 60.2794L9.91587 70.0367ZM11.0004 1.96643L9.50038 68.9664L12.4996 69.0336L13.9996 2.03357L11.0004 1.96643Z" fill="black"/>
</svg>
